<?xml version="1.0" ?><svg viewBox="0 0 512 512" xmlns="http://www.w3.org/2000/svg"><g id="QR-code_product"><path d="M240.0992,318.67H204.2911v35.8083h35.8081Zm-9.7812,26.0269H214.0723V328.4514H230.318Z"/><path d="M273.3084,283.5957h35.8084V247.7875H273.3084Zm9.7814-26.027h16.2457v16.2458H283.09Z"/><path d="M240.0992,247.7875H204.2911v35.8082h35.8081Zm-9.7812,26.027H214.0723V257.5687H230.318Z"/><rect height="8.7034" width="8.7035" x="246.5731" y="247.7876"/><rect height="8.7034" width="8.7035" x="204.2639" y="289.2039"/><rect height="8.7034" width="8.7035" x="244.8325" y="309.9668"/><path d="M273.3084,354.4785h35.8084V318.67h-27.105v-8.7034h-8.7034Zm9.7814-26.0271h16.2457v16.2457H283.09Z"/><path d="M255.2766,293.5557V273.2419h8.014a4.3516,4.3516,0,0,0,4.3518-4.3515V256.491H258.939v8.0476h-8.0141a4.3517,4.3517,0,0,0-4.3518,4.3518v20.3135H232.0587v8.7033h18.8662A4.3516,4.3516,0,0,0,255.2766,293.5557Z"/><path d="M291.213,312.5569h17.904v-8.7034H295.5647V293.5557a4.3517,4.3517,0,0,0-4.3517-4.3518H273.3089v8.7033h13.5523v10.298A4.3518,4.3518,0,0,0,291.213,312.5569Z"/><path d="M268.1234,336.5742V318.67H259.42v13.5522H249.1842v8.7034h14.5876A4.3516,4.3516,0,0,0,268.1234,336.5742Z"/><rect height="8.7034" width="16.2457" x="214.0722" y="303.8535"/><path d="M333.3409,236.7117a14.185,14.185,0,0,0-14.1689-14.169H302.1954v12H319.172a2.1714,2.1714,0,0,1,2.1689,2.169v16.9135h12Z"/><path d="M180.9454,236.7117v16.9135h12V236.7117a2.1717,2.1717,0,0,1,2.1694-2.169h16.9766v-12H195.1148A14.1851,14.1851,0,0,0,180.9454,236.7117Z"/><path d="M333.3409,363.6794V346.7659h-12v16.9135a2.1714,2.1714,0,0,1-2.1689,2.169H302.1954v12H319.172A14.185,14.185,0,0,0,333.3409,363.6794Z"/><path d="M180.9454,363.6794a14.1851,14.1851,0,0,0,14.1694,14.169h16.9766v-12H195.1148a2.1717,2.1717,0,0,1-2.1694-2.169V346.7659h-12Z"/><rect height="12" width="100.4141" x="55.5572" y="290.8577"/><rect height="12" width="100.4141" x="357.4395" y="290.8577"/><path d="M114.3126,147.5466a18.546,18.546,0,0,1,18.499-16.7007h59.541v26.7657a21.5752,21.5752,0,1,0,12,0V130.8459H306.171v26.7657a21.5752,21.5752,0,1,0,12,0V130.8459h59.541a18.542,18.542,0,0,1,18.4971,16.6788l12.9655,131.333h12.0579l-13.084-132.5342a30.5154,30.5154,0,0,0-30.4365-27.4776H318.171V99.9939a62.9092,62.9092,0,0,0-125.8184,0v18.852h-59.541a30.519,30.519,0,0,0-30.4385,27.5L89.2911,278.8577h12.058Zm207.4336,30.774a9.5752,9.5752,0,1,1-9.5752-9.5752A9.5862,9.5862,0,0,1,321.7462,178.3206ZM204.3526,99.9939a50.9092,50.9092,0,0,1,101.8184,0v18.852H204.3526Zm-6,68.7515a9.575,9.575,0,1,1-9.5752,9.5752A9.5863,9.5863,0,0,1,198.3526,168.7454Z"/><path d="M424.7865,314.8577H412.7287l10.619,107.5639.002.022a18.5966,18.5966,0,0,1-18.499,20.4912h-6.7732l-37.5364-35.1592a46.044,46.044,0,0,0-31.5859-12.4824H177.4718a46.05,46.05,0,0,0-31.586,12.4824l-37.5364,35.1592h-2.6765a18.597,18.597,0,0,1-18.497-20.5132L97.795,314.8577H85.737L75.2364,421.2209a30.596,30.596,0,0,0,30.4365,33.7139H404.8507a30.5956,30.5956,0,0,0,30.4365-33.7109Z"/></g></svg>